<svg xmlns="http://www.w3.org/2000/svg" viewBox="0 0 100 100"><defs><style>.cls-1{fill:#440460;}.cls-2,.cls-3{fill:#fff;}.cls-3{font-size:6px;font-family:Helvetica, Helvetica;}</style></defs><title>image</title><g id="Layer_2" data-name="Layer 2"><g id="Layer_1-2" data-name="Layer 1"><g id="image"><rect class="cls-1" width="100" height="100"/><path class="cls-2" d="M64.63,50.82V33.52A.52.52,0,0,0,64.1,33H34.85a.52.52,0,0,0-.52.52v23a.52.52,0,0,0,.52.52H52.61a6.79,6.79,0,1,0,12-6.21ZM52.28,56H35.37V34H63.58V49.52a3.22,3.22,0,0,0-.28-.24l-.13-.12-.38-.29-.15-.1c-.12-.09-.26-.16-.39-.24l-.17-.1L62,48.37a.54.54,0,0,0-.11-.61L55.58,42a.5.5,0,0,0-.38-.14.53.53,0,0,0-.36.17l-5.12,5.6-2.48-2.47a.51.51,0,0,0-.71,0L37.64,53a.52.52,0,0,0,0,.74.53.53,0,0,0,.4.18.55.55,0,0,0,.34-.13l8.52-7.51,5.38,5.38a.5.5,0,0,0,.39.15,6.79,6.79,0,0,0-.53,2.63c0,.26,0,.51,0,.76a.5.5,0,0,1,0,.12c0,.22.07.44.12.65C52.27,56,52.27,56,52.28,56Zm7.53-8.28-.25,0c-.23,0-.45,0-.68,0A6.78,6.78,0,0,0,53,51,.47.47,0,0,0,53,50.9l-2.51-2.51,4.8-5.25,5.06,4.64-.1,0Zm-.93,12.46a5.75,5.75,0,0,1-5.42-3.84c0-.14-.09-.28-.13-.42l0-.09c0-.13-.06-.25-.08-.38l0-.2a2.89,2.89,0,0,1,0-.29c0-.17,0-.35,0-.52a5.76,5.76,0,0,1,5.75-5.75c.22,0,.44,0,.66,0l.2,0,.45.09.22.05.41.14.21.07c.15.06.31.14.45.21l.13.06c.18.1.36.21.52.32l.2.15.31.25.19.18a2.76,2.76,0,0,1,.29.3l.15.16a4.91,4.91,0,0,1,.39.51,5.74,5.74,0,0,1-4.78,8.93Z"/><path class="cls-2" d="M62,53.9H59.4V51.28a.52.52,0,0,0-1,0V53.9H55.75a.52.52,0,1,0,0,1h2.61v2.61a.52.52,0,1,0,1,0V54.94H62a.52.52,0,1,0,0-1Z"/><path class="cls-2" d="M42.69,44.56a2.91,2.91,0,1,0-2.91-2.9A2.91,2.91,0,0,0,42.69,44.56Zm0-4.77a1.87,1.87,0,1,1-1.87,1.87A1.87,1.87,0,0,1,42.69,39.79Z"/><text class="cls-3" transform="translate(31.49 70.24)">Upload image</text></g></g></g></svg>