<svg xmlns="http://www.w3.org/2000/svg" viewBox="0 0 300 200"><defs><style>.cls-1{fill:#9634b8;}.cls-2{fill:#fff;}</style></defs><title>list-l</title><g id="Layer_2" data-name="Layer 2"><g id="Layer_1-2" data-name="Layer 1"><g id="list-l"><rect class="cls-1" width="300" height="200"/><path class="cls-2" d="M164.86,50h-54V150h78.34V74.31Zm1,5.69,17.65,17.64H165.83Zm-51.66,91V53.33H162.5V76.67h23.33v70Z"/><path class="cls-2" d="M170.83,85H144.17a1.67,1.67,0,1,0,0,3.33h26.66a1.67,1.67,0,1,0,0-3.33Z"/><path class="cls-2" d="M138.12,80.36,131,86.1l-2.28-2.28a1.67,1.67,0,0,0-2.36,2.36l3.33,3.33a1.71,1.71,0,0,0,1.18.49,1.66,1.66,0,0,0,1-.36L140.21,83a1.67,1.67,0,0,0-2.09-2.61Z"/><path class="cls-2" d="M170.83,103.33H144.17a1.67,1.67,0,1,0,0,3.34h26.66a1.67,1.67,0,0,0,0-3.34Z"/><path class="cls-2" d="M138.12,98.7,131,104.43l-2.28-2.28a1.67,1.67,0,0,0-2.36,2.36l3.33,3.34a1.7,1.7,0,0,0,1.18.48,1.66,1.66,0,0,0,1-.36l8.34-6.67a1.67,1.67,0,1,0-2.09-2.6Z"/><path class="cls-2" d="M170.83,121.67H144.17a1.67,1.67,0,1,0,0,3.33h26.66a1.67,1.67,0,1,0,0-3.33Z"/><path class="cls-2" d="M138.12,117,131,122.77l-2.28-2.28a1.67,1.67,0,1,0-2.36,2.36l3.33,3.33a1.71,1.71,0,0,0,1.18.49,1.62,1.62,0,0,0,1-.37l8.34-6.67a1.67,1.67,0,1,0-2.09-2.6Z"/></g></g></g></svg>