<svg id="Logo" xmlns="http://www.w3.org/2000/svg" viewBox="0 0 385 90"><defs><style>.cls-1{fill:#f2ce36;}.cls-2{fill:#440460;}</style></defs><title>Artboard 1</title><path class="cls-1" d="M188.31,57.71a16.41,16.41,0,0,1-2.16,6.23,11.76,11.76,0,0,1-4.79,4.34A18.28,18.28,0,0,1,173,69.9a20.74,20.74,0,0,1-8.6-1.48,10.57,10.57,0,0,1-4.75-4.13,15.76,15.76,0,0,1-2-6.2,60.34,60.34,0,0,1-.45-7.6,48.37,48.37,0,0,1,.52-7.16,16.51,16.51,0,0,1,2.17-6.26,12,12,0,0,1,4.78-4.44A17.72,17.72,0,0,1,173,30.94a19.86,19.86,0,0,1,8.6,1.55,10.82,10.82,0,0,1,4.75,4.23,16.06,16.06,0,0,1,2,6.23,60.62,60.62,0,0,1,.45,7.61A48.24,48.24,0,0,1,188.31,57.71ZM169.7,56.3a15,15,0,0,0,.55,3.55,3.46,3.46,0,0,0,1.06,1.79,2.79,2.79,0,0,0,1.69.48,2.93,2.93,0,0,0,1.72-.48,3.17,3.17,0,0,0,1.07-1.79,17.07,17.07,0,0,0,.51-3.55c.1-1.49.14-3.4.14-5.74s0-4.27-.14-5.78a17.19,17.19,0,0,0-.51-3.58,3.17,3.17,0,0,0-1.07-1.79,2.93,2.93,0,0,0-1.72-.48,2.79,2.79,0,0,0-1.69.48,3.46,3.46,0,0,0-1.06,1.79,15.07,15.07,0,0,0-.55,3.58c-.1,1.51-.14,3.44-.14,5.78S169.6,54.81,169.7,56.3Z"/><path class="cls-1" d="M130,20H143.8l4.82,17.14h.14L153.58,20h14L155.09,49.8V69.14h-12.8V49.8Z"/><path class="cls-2" d="M167.61,20l-6.44,15.34a12.78,12.78,0,0,1,3.47-2.71A17.72,17.72,0,0,1,173,30.94a19.86,19.86,0,0,1,8.6,1.55,10.82,10.82,0,0,1,4.75,4.23,16.06,16.06,0,0,1,2,6.23,60.62,60.62,0,0,1,.45,7.61,48.24,48.24,0,0,1-.52,7.15,16.41,16.41,0,0,1-2.16,6.23,11.76,11.76,0,0,1-4.79,4.34A18.28,18.28,0,0,1,173,69.9a20.74,20.74,0,0,1-8.6-1.48,10.57,10.57,0,0,1-4.75-4.13,15.76,15.76,0,0,1-2-6.2,60.34,60.34,0,0,1-.45-7.6,50.12,50.12,0,0,1,.46-6.75l-2.54,6.06V69.14h-12.8V49.8L130,20H143.8l4.82,17.14h.14L153.58,20h14M173,62.12a2.93,2.93,0,0,0,1.72-.48,3.17,3.17,0,0,0,1.07-1.79,17.07,17.07,0,0,0,.51-3.55c.1-1.49.14-3.4.14-5.74s0-4.27-.14-5.78a17.19,17.19,0,0,0-.51-3.58,3.17,3.17,0,0,0-1.07-1.79,2.93,2.93,0,0,0-1.72-.48,2.79,2.79,0,0,0-1.69.48,3.46,3.46,0,0,0-1.06,1.79,15.07,15.07,0,0,0-.55,3.58c-.1,1.51-.14,3.44-.14,5.78s0,4.25.14,5.74a15,15,0,0,0,.55,3.55,3.46,3.46,0,0,0,1.06,1.79,2.79,2.79,0,0,0,1.69.48M170.62,18H152.06l-.41,1.46-3,10.53-3-10.53L145.32,18H127l1.14,2.76L140.29,50.2V71.14h16.8V63.69a14.57,14.57,0,0,0,.84,1.62,12.52,12.52,0,0,0,5.62,4.92A22.35,22.35,0,0,0,173,71.9a20.37,20.37,0,0,0,9.28-1.84A13.84,13.84,0,0,0,187.86,65a18.58,18.58,0,0,0,2.43-7,51,51,0,0,0,.54-7.45,64.7,64.7,0,0,0-.46-7.86,18.25,18.25,0,0,0-2.3-7,12.87,12.87,0,0,0-5.59-5A21.65,21.65,0,0,0,173,28.94a22.21,22.21,0,0,0-7.44,1.11l3.9-9.28L170.62,18Zm1.88,42a2.92,2.92,0,0,1-.35-.78,13.9,13.9,0,0,1-.46-3.07c-.09-1.43-.13-3.32-.13-5.62s0-4.21.13-5.66a13.83,13.83,0,0,1,.46-3.1,2.32,2.32,0,0,1,.37-.8,1.52,1.52,0,0,1,1,0h0a2.23,2.23,0,0,1,.3.7,16.07,16.07,0,0,1,.44,3.15c.09,1.46.13,3.37.13,5.66s0,4.18-.13,5.62a15.7,15.7,0,0,1-.44,3.11,2,2,0,0,1-.32.73,1.18,1.18,0,0,1-.55.1,1,1,0,0,1-.5-.09Z"/><path class="cls-2" d="M20,35.13V25.65H47.84v9.48h-8.4V68.49H28.28V35.13Z"/><path class="cls-2" d="M55.58,36v5.16h.12a8.64,8.64,0,0,1,2.88-4.47A7,7,0,0,1,63,35.19H64.7V45.27q-.72-.12-1.38-.18T62,45a7,7,0,0,0-4.47,1.26q-1.59,1.26-1.59,4.5v17.7H45.14V36Z"/><path class="cls-2" d="M76.4,58.35q0,2.64.9,3.51a2.86,2.86,0,0,0,2,.87,2.59,2.59,0,0,0,2.25-1.17q.81-1.17.81-4.47h9.72q-.12,6-3.06,9t-9.66,3a21.44,21.44,0,0,1-6.54-.87A8.91,8.91,0,0,1,68.6,65.4a12.33,12.33,0,0,1-2.31-5.25,38.36,38.36,0,0,1-.69-7.86,34.38,34.38,0,0,1,.78-7.92,13,13,0,0,1,2.46-5.28,9.62,9.62,0,0,1,4.29-3A21.31,21.31,0,0,1,85.07,36a9.15,9.15,0,0,1,4.08,2.61,11.6,11.6,0,0,1,2.46,4.8,28.67,28.67,0,0,1,.81,7.41v3.3h-16ZM81.71,43a2.43,2.43,0,0,0-2.37-1.2A2.37,2.37,0,0,0,77,43a8.53,8.53,0,0,0-.63,3.78v1.44h5.94V46.77A8.53,8.53,0,0,0,81.71,43Z"/><path class="cls-2" d="M110.78,66.75q-.12-.9-.24-1.92h-.12a6.39,6.39,0,0,1-2.85,3.24,9.07,9.07,0,0,1-4.47,1.08,12.12,12.12,0,0,1-4.17-.63,6.6,6.6,0,0,1-2.79-1.89,7.67,7.67,0,0,1-1.56-3,14.42,14.42,0,0,1-.48-3.84,15.42,15.42,0,0,1,.45-4A7.55,7.55,0,0,1,96,52.92a8.39,8.39,0,0,1,2.76-2.1,19.73,19.73,0,0,1,4.32-1.47l4.26-1a4.72,4.72,0,0,0,2.46-1.23,3.36,3.36,0,0,0,.72-2.31q0-3-2.76-3a2.79,2.79,0,0,0-2.28.87,6,6,0,0,0-.78,3.45H95.36a11.08,11.08,0,0,1,1.26-5.67,9.54,9.54,0,0,1,3.12-3.3,11.23,11.23,0,0,1,4-1.56,22.71,22.71,0,0,1,4-.39,27.87,27.87,0,0,1,5.19.45,10.65,10.65,0,0,1,4.08,1.62,7.65,7.65,0,0,1,2.64,3.18,12.43,12.43,0,0,1,.93,5.19V61.47a39.55,39.55,0,0,0,.18,4,8.25,8.25,0,0,0,.84,3H111.2A8.5,8.5,0,0,1,110.78,66.75Zm-1-6a8.11,8.11,0,0,0,.78-4v-3.9h-.12a2.11,2.11,0,0,1-1.47.81,8.53,8.53,0,0,0-2.19.69A3.5,3.5,0,0,0,105,55.92a6,6,0,0,0-.48,2.61,4.2,4.2,0,0,0,.72,2.58,2.28,2.28,0,0,0,1.92,1A2.76,2.76,0,0,0,109.76,60.75Z"/><path class="cls-2" d="M127,36V26.49h10.8V36H142v7.26h-4.26V58.77a2.54,2.54,0,0,0,.63,1.95,2.84,2.84,0,0,0,2,.57H142v7.2q-1.5,0-3,.09t-2.88.09a35.76,35.76,0,0,1-4.2-.21,5.78,5.78,0,0,1-2.85-1,4.77,4.77,0,0,1-1.62-2.49,15.14,15.14,0,0,1-.51-4.35V43.29h-3.6V36Z"/><path class="cls-2" d="M210,26.24v9.12H195.81v7.32h13.32v8.76H195.81V69.08H184.65V26.24Z"/><path class="cls-2" d="M223.17,36.62v5.16h.12a8.64,8.64,0,0,1,2.88-4.47,7,7,0,0,1,4.38-1.53h1.74V45.86q-.72-.12-1.38-.18t-1.32-.06a7,7,0,0,0-4.47,1.26q-1.59,1.26-1.59,4.5v17.7h-10.8V36.62Z"/><path class="cls-2" d="M245.13,26.24v8h-10.8v-8Zm0,10.38V69.08h-10.8V36.62Z"/><path class="cls-2" d="M259.47,58.94q0,2.64.9,3.51a2.86,2.86,0,0,0,2,.87,2.59,2.59,0,0,0,2.25-1.17q.81-1.17.81-4.47h9.72q-.12,6-3.06,9t-9.66,3a21.13,21.13,0,0,1-6.54-.87A8.91,8.91,0,0,1,251.67,66a12.33,12.33,0,0,1-2.31-5.25,38.36,38.36,0,0,1-.69-7.86,34.38,34.38,0,0,1,.78-7.92,13,13,0,0,1,2.46-5.28,9.62,9.62,0,0,1,4.29-3,21.31,21.31,0,0,1,11.94-.15,9.15,9.15,0,0,1,4.08,2.61,11.6,11.6,0,0,1,2.46,4.8,28.67,28.67,0,0,1,.81,7.41v3.3h-16Zm5.31-15.36a2.43,2.43,0,0,0-2.37-1.2,2.37,2.37,0,0,0-2.31,1.2,8.53,8.53,0,0,0-.63,3.78V48.8h5.94V47.36A8.53,8.53,0,0,0,264.78,43.58Z"/><path class="cls-2" d="M288.93,36.62v4h.12q2.1-4.8,7.86-4.8a13.46,13.46,0,0,1,3.33.39,6.26,6.26,0,0,1,2.67,1.41,7,7,0,0,1,1.8,2.7,12,12,0,0,1,.66,4.32V69.08h-10.8V47.66a5.47,5.47,0,0,0-.6-2.94,2.76,2.76,0,0,0-4.08,0,5.47,5.47,0,0,0-.6,2.94V69.08h-10.8V36.62Z"/><path class="cls-2" d="M336.39,26.24V69.08H326V64.64h-.12a7,7,0,0,1-7.38,5.1q-5.4,0-7.56-4.26t-2.16-13.32a35.11,35.11,0,0,1,.72-7.74,15.13,15.13,0,0,1,2-5,7.52,7.52,0,0,1,3.15-2.76,9.8,9.8,0,0,1,4.08-.84,8.5,8.5,0,0,1,4.11,1,5.86,5.86,0,0,1,2.67,3.51h.12v-14Zm-16.74,31A12.46,12.46,0,0,0,320.1,60a2.72,2.72,0,0,0,.93,1.47,2.66,2.66,0,0,0,1.56.42,2.55,2.55,0,0,0,1.5-.42A2.72,2.72,0,0,0,325,60a12.46,12.46,0,0,0,.45-2.79q.12-1.74.12-4.32t-.12-4.38a12.46,12.46,0,0,0-.45-2.79,2.72,2.72,0,0,0-.93-1.47,2.55,2.55,0,0,0-1.5-.42,2.66,2.66,0,0,0-1.56.42,2.72,2.72,0,0,0-.93,1.47,12.46,12.46,0,0,0-.45,2.79q-.12,1.74-.12,4.38T319.65,57.2Z"/><path class="cls-2" d="M349.41,60.8a3.36,3.36,0,0,0,.6,1.38,2.59,2.59,0,0,0,2.28,1.14,3.47,3.47,0,0,0,2.19-.72,2.43,2.43,0,0,0,.93-2,2.51,2.51,0,0,0-1.17-2.22A12.74,12.74,0,0,0,351.33,57q-1.74-.6-3.75-1.26a15.81,15.81,0,0,1-3.75-1.8,9.6,9.6,0,0,1-2.91-3,9.3,9.3,0,0,1-1.17-4.95,10.07,10.07,0,0,1,.78-4,8.78,8.78,0,0,1,2.37-3.21,11.33,11.33,0,0,1,4-2.16,18.81,18.81,0,0,1,5.73-.78q12.18,0,12.18,10.2h-9.36a4.06,4.06,0,0,0-.75-2.85,2.88,2.88,0,0,0-2.13-.75,3,3,0,0,0-2,.66,2.3,2.3,0,0,0-.78,1.86A2.25,2.25,0,0,0,351,47a13.83,13.83,0,0,0,2.91,1.23l3.75,1.14a14.82,14.82,0,0,1,3.75,1.71,9.29,9.29,0,0,1,2.91,3,9.43,9.43,0,0,1,1.17,5,10.46,10.46,0,0,1-.9,4.38A10,10,0,0,1,362,66.86,10.75,10.75,0,0,1,358,69a19.32,19.32,0,0,1-5.49.72q-6.78,0-9.75-2.7t-3-8h9.48A8.58,8.58,0,0,0,349.41,60.8Z"/></svg>