<svg xmlns="http://www.w3.org/2000/svg" viewBox="0 0 100.22 100"><defs><style>.cls-1{fill:none;}.cls-2{fill:#440460;}</style></defs><title>profile</title><g id="Layer_2" data-name="Layer 2"><g id="Layer_1-2" data-name="Layer 1"><g id="profile"><rect class="cls-1" x="0.11" width="100" height="100"/><path class="cls-2" d="M49.94,55.84A26.78,26.78,0,1,0,23.12,29,26.83,26.83,0,0,0,49.94,55.84Zm0-46.57A19.75,19.75,0,1,1,30.2,29,19.81,19.81,0,0,1,49.94,9.27Z"/><path class="cls-2" d="M3.54,97.72H96.68a3.51,3.51,0,0,0,3.54-3.54A33.7,33.7,0,0,0,66.56,60.53H33.65A33.69,33.69,0,0,0,0,94.18,3.51,3.51,0,0,0,3.54,97.72ZM33.65,67.61H66.56a26.56,26.56,0,0,1,26.33,23H7.32A26.63,26.63,0,0,1,33.65,67.61Z"/></g></g></g></svg>