<svg xmlns="http://www.w3.org/2000/svg" viewBox="0 0 300 200"><defs><style>.cls-1{fill:#9634b8;}.cls-2{fill:#fff;}</style></defs><title>reserve</title><g id="Layer_2" data-name="Layer 2"><g id="Layer_1-2" data-name="Layer 1"><g id="reserve"><rect class="cls-1" width="300" height="200"/><path class="cls-2" d="M150,84.76a9.53,9.53,0,1,0,9.52,9.53A9.53,9.53,0,0,0,150,84.76ZM150,100a5.72,5.72,0,1,1,5.71-5.71A5.71,5.71,0,0,1,150,100Z"/><path class="cls-2" d="M176.67,54.29H123.33a9.53,9.53,0,0,0-9.52,9.52V86.67a9.53,9.53,0,0,0,9.52,9.52h19a1.91,1.91,0,1,0,0-3.81h-19a5.71,5.71,0,0,1-5.71-5.71V63.81a5.72,5.72,0,0,1,5.71-5.72h53.34a5.72,5.72,0,0,1,5.71,5.72V86.67a5.71,5.71,0,0,1-5.71,5.71h-19a1.91,1.91,0,1,0,0,3.81h19a9.53,9.53,0,0,0,9.52-9.52V63.81A9.53,9.53,0,0,0,176.67,54.29Z"/><path class="cls-2" d="M150,100a1.9,1.9,0,0,0-1.9,1.9v34.29a1.9,1.9,0,1,0,3.8,0V101.9A1.9,1.9,0,0,0,150,100Z"/><path class="cls-2" d="M150,134.29c-9.77,0-17.14,4.09-17.14,9.52a1.9,1.9,0,0,0,1.9,1.9h30.48a1.9,1.9,0,0,0,1.9-1.9C167.14,138.38,159.77,134.29,150,134.29Zm-12.45,7.61c1.89-2,6.6-3.8,12.45-3.8s10.56,1.77,12.44,3.8Z"/><path class="cls-2" d="M172.86,65.71H127.14a1.91,1.91,0,0,0,0,3.81h45.72a1.91,1.91,0,0,0,0-3.81Z"/><path class="cls-2" d="M165.24,73.33H134.76a1.91,1.91,0,0,0,0,3.81h30.48a1.91,1.91,0,0,0,0-3.81Z"/></g></g></g></svg>