<svg xmlns="http://www.w3.org/2000/svg" viewBox="0 0 300 200"><defs><style>.cls-1{fill:#ffde57;}.cls-2{fill:#fff;}</style></defs><title>share</title><g id="Layer_2" data-name="Layer 2"><g id="Layer_1-2" data-name="Layer 1"><g id="share"><rect class="cls-1" width="300" height="200"/><rect class="cls-2" x="147.91" y="131.34" width="4.18" height="4.18"/><rect class="cls-2" x="147.91" y="122.98" width="4.18" height="4.18"/><rect class="cls-2" x="176.65" y="83.61" width="3.99" height="4.18" transform="translate(-19.46 88.94) rotate(-26.57)"/><path class="cls-2" d="M207.38,70.75A8.33,8.33,0,0,0,192,76.66l-1.81.9,1.87,3.74,1.83-.91a8.32,8.32,0,0,0,13.48-9.64Zm-5.15,7.8a4.11,4.11,0,0,1-2.08.56,4.18,4.18,0,1,1,2.08-.56Z"/><rect class="cls-2" x="183.78" y="80.02" width="3.99" height="4.18" transform="translate(-17.11 91.75) rotate(-26.57)"/><rect class="cls-2" x="169.51" y="87.16" width="3.99" height="4.18" transform="translate(-21.81 86.12) rotate(-26.57)"/><rect class="cls-2" x="119.26" y="83.68" width="4.18" height="3.99" transform="translate(-9.55 155.9) rotate(-63.43)"/><rect class="cls-2" x="112.13" y="80.12" width="4.18" height="3.99" transform="translate(-10.31 147.55) rotate(-63.43)"/><rect class="cls-2" x="126.4" y="87.25" width="4.18" height="3.99" transform="translate(-8.8 164.26) rotate(-63.43)"/><path class="cls-2" d="M108,76.66a8.34,8.34,0,1,0-12.31,5.51,8.42,8.42,0,0,0,4.17,1.12,8.33,8.33,0,0,0,6.25-2.9l1.83.91,1.87-3.74Zm-4.52.36a4.18,4.18,0,0,1-3.62,2.09,4.11,4.11,0,0,1-2.08-.56,4.18,4.18,0,1,1,5.7-1.53Z"/><path class="cls-2" d="M154.18,142.91a8.13,8.13,0,0,0-2.09-.85V139.7h-4.18v2.36a8.35,8.35,0,1,0,6.27.85Zm-.56,9.32a4.21,4.21,0,0,1-3.63,2.09,4.18,4.18,0,0,1-3.61-6.27A4.23,4.23,0,0,1,150,146a4.07,4.07,0,0,1,2.08.57A4.18,4.18,0,0,1,153.62,152.23Z"/><path class="cls-2" d="M196,116.71a12.43,12.43,0,0,0-9.26,4.17l-21.63-13.77a16,16,0,0,0,.64-12.63l1.37-.68-1.87-3.74-1.32.66a16.62,16.62,0,0,0-11.8-7.22V66.36a12.54,12.54,0,1,0-4.18,0V83.5a16.62,16.62,0,0,0-11.8,7.22l-1.32-.66-1.87,3.74,1.37.68a16.61,16.61,0,0,0-1,5.52,16.43,16.43,0,0,0,1.64,7.11L113.3,120.88a12.09,12.09,0,1,0,2.29,3.5l21.61-13.75a16.57,16.57,0,0,0,10.71,5.87v2.3h4.18v-2.3a16.57,16.57,0,0,0,10.71-5.87l21.61,13.75A12.54,12.54,0,1,0,196,116.71ZM104,137.61a8.36,8.36,0,1,1,8.35-8.36A8.37,8.37,0,0,1,104,137.61ZM141.64,54A8.36,8.36,0,1,1,150,62.39,8.37,8.37,0,0,1,141.64,54Zm8.36,58.5A12.54,12.54,0,1,1,162.54,100,12.56,12.56,0,0,1,150,112.54Zm46,25.07a8.36,8.36,0,1,1,8.36-8.36A8.37,8.37,0,0,1,196,137.61Z"/></g></g></g></svg>