<svg xmlns="http://www.w3.org/2000/svg" viewBox="0 0 300 200"><defs><style>.cls-1{fill:#9634b8;}.cls-2{fill:#fff;}</style></defs><title>store</title><g id="Layer_2" data-name="Layer 2"><g id="Layer_1-2" data-name="Layer 1"><g id="store"><rect class="cls-1" width="300" height="200"/><path class="cls-2" d="M199.87,77.88c-1.26-21.4-18.89-38.5-40.16-38.5A41.92,41.92,0,0,0,126.55,56c-.17-.1-.36-.16-.54-.25-.47-.22-1-.44-1.44-.64l-.82-.3c-.48-.17-1-.31-1.46-.45-.28-.07-.55-.15-.83-.21-.53-.12-1.08-.22-1.63-.3l-.72-.11a20.87,20.87,0,0,0-2.39-.14A21.42,21.42,0,0,0,95.32,75c0,.3,0,.6,0,.9a32.88,32.88,0,0,0-16.68,28,30.57,30.57,0,0,0,30.53,30.54h12.26a2.38,2.38,0,1,0,0-4.75H109.21a25.82,25.82,0,0,1-25.78-25.79c0-9.87,6.43-20.13,15.29-24.37l1.35-.65v-1.5c0-.29,0-.59,0-.89l0-.41,0-.45c0-.21,0-.41,0-.62a16.67,16.67,0,0,1,16.65-16.65,17.62,17.62,0,0,1,2.18.16l.55.09a15.43,15.43,0,0,1,1.88.42l.24.06a16.17,16.17,0,0,1,2,.77l.48.23a17.28,17.28,0,0,1,1.68,1,16.65,16.65,0,0,1,7.63,14,2.38,2.38,0,0,0,4.75,0A21.34,21.34,0,0,0,130.5,58.7a37.7,37.7,0,0,1,29.21-14.57c18.41,0,33.71,14.59,35.3,33a45.08,45.08,0,0,0-9.71.29,2.38,2.38,0,0,0,.36,4.73,2.19,2.19,0,0,0,.36,0,43.35,43.35,0,0,1,11.13,0,24.37,24.37,0,0,1,19.42,23.74,23.87,23.87,0,0,1-23.84,23.84h-9.45a2.38,2.38,0,0,0,0,4.75h9.45a28.63,28.63,0,0,0,28.59-28.59A29.24,29.24,0,0,0,199.87,77.88Z"/><path class="cls-2" d="M154.06,101.89a2.36,2.36,0,0,0-2.59-.52,2.54,2.54,0,0,0-.78.52l-19,19a2.38,2.38,0,0,0,3.36,3.37l15-15v48.94a2.38,2.38,0,0,0,4.75,0V109.31l15,15a2.38,2.38,0,1,0,3.36-3.37Z"/></g></g></g></svg>