<svg xmlns="http://www.w3.org/2000/svg" viewBox="0 0 300 200"><defs><style>.cls-1{fill:#ffde57;}.cls-2{fill:#fff;}</style></defs><title>wish-y</title><g id="Layer_2" data-name="Layer 2"><g id="Layer_1-2" data-name="Layer 1"><g id="wish-y"><rect class="cls-1" width="300" height="200"/><path class="cls-2" d="M178.24,69.1a11.63,11.63,0,0,0,3.11-7.95A11.49,11.49,0,0,0,170,49.56c-4.74,0-15.65,7.08-20,13.45-4.51-6.37-15.38-13.24-19.93-13.24a11.5,11.5,0,0,0-11.38,11.59,11.67,11.67,0,0,0,2.9,7.72h-22V96.77h6v53.67h88.88V96.79h6V69.1ZM170,53.87a7.23,7.23,0,0,1,7.08,7.51,7.51,7.51,0,0,1-5.8,7.39H153.83c-1.11-.33-1.46-.72-1.46-1,0-3.66,12.86-13.95,17.6-13.95Zm-39.94,0c4.51,0,17.6,10.29,17.6,13.95,0,.33-.76.7-1.32,1H128.78A7.51,7.51,0,0,1,123,61.38,7.35,7.35,0,0,1,130,53.87Zm7.08,92.26H109.86V96.79h27.25Zm0-53.42H103.87V73.4h33.26V92.71Zm21.45,53.42H141.39V73.38h17.17Zm31.56,0H162.87V96.79h27.25Zm6-53.42H162.87V73.4h33.26V92.71Z"/></g></g></g></svg>