<svg xmlns="http://www.w3.org/2000/svg" viewBox="0 0 300 200"><defs><style>.cls-1{fill:#9634b8;}.cls-2{fill:#fff;}</style></defs><title>wish-l</title><g id="Layer_2" data-name="Layer 2"><g id="Layer_1-2" data-name="Layer 1"><g id="wish-l"><rect class="cls-1" width="300" height="200"/><path class="cls-2" d="M178,69.37a11.54,11.54,0,0,0,3.08-7.88A11.39,11.39,0,0,0,169.8,50c-4.7,0-15.51,7-19.84,13.33C145.49,57,134.71,50.2,130.2,50.2a11.41,11.41,0,0,0-11.28,11.49,11.55,11.55,0,0,0,2.88,7.66H100V96.8h6V150h88.1V96.82H200V69.37Zm-8.2-15.1a7.17,7.17,0,0,1,7,7.44A7.43,7.43,0,0,1,171.06,69H153.8c-1.11-.33-1.45-.71-1.45-.94,0-3.63,12.75-13.83,17.45-13.83Zm-39.6,0c4.47,0,17.45,10.2,17.45,13.83,0,.33-.75.7-1.3.94H129a7.43,7.43,0,0,1-5.76-7.33,7.29,7.29,0,0,1,7-7.44Zm7,91.46h-27V96.82h27Zm0-52.95H104.27V73.63h33V92.78Zm21.27,52.95h-17V73.61h17Zm31.29,0h-27V96.82h27Zm5.93-52.95h-33V73.63h33V92.78Z"/></g></g></g></svg>